<svg width="42" height="42" viewBox="0 0 42 42" fill="none" xmlns="http://www.w3.org/2000/svg">
<path d="M41.8125 4.33333C41.8125 2.04167 39.9583 0.166668 37.6666 0.166668H4.33329C2.04163 0.166668 0.166626 2.04167 0.166626 4.33333V29.3333C0.166626 31.625 2.04163 33.5 4.33329 33.5H33.5L41.8333 41.8333L41.8125 4.33333ZM31.4166 25.1667H10.5833C9.43746 25.1667 8.49996 24.2292 8.49996 23.0833C8.49996 21.9375 9.43746 21 10.5833 21H31.4166C32.5625 21 33.5 21.9375 33.5 23.0833C33.5 24.2292 32.5625 25.1667 31.4166 25.1667ZM31.4166 18.9167H10.5833C9.43746 18.9167 8.49996 17.9792 8.49996 16.8333C8.49996 15.6875 9.43746 14.75 10.5833 14.75H31.4166C32.5625 14.75 33.5 15.6875 33.5 16.8333C33.5 17.9792 32.5625 18.9167 31.4166 18.9167ZM31.4166 12.6667H10.5833C9.43746 12.6667 8.49996 11.7292 8.49996 10.5833C8.49996 9.4375 9.43746 8.5 10.5833 8.5H31.4166C32.5625 8.5 33.5 9.4375 33.5 10.5833C33.5 11.7292 32.5625 12.6667 31.4166 12.6667Z" fill="#7D859B"/>
</svg>
