<svg width="61" height="62" viewBox="0 0 61 62" fill="none" xmlns="http://www.w3.org/2000/svg">
<ellipse cx="30.5" cy="31" rx="30" ry="31" fill="#E4E5EA"/>
<g clip-path="url(#clip0_19_232)">
<path fill-rule="evenodd" clip-rule="evenodd" d="M19.7068 30.1755C26.4251 27.0233 30.905 24.9452 33.1466 23.9412C39.5466 21.0744 40.8764 20.5764 41.7432 20.56C41.9339 20.5564 42.3601 20.6073 42.6363 20.8485C42.8694 21.0523 42.9336 21.3275 42.9642 21.5206C42.9949 21.7138 43.0332 22.1538 43.0028 22.4977C42.656 26.422 41.1553 35.9454 40.3918 40.3408C40.0688 42.2006 39.4327 42.8242 38.8169 42.8853C37.4786 43.0179 36.4623 41.9328 35.1661 41.0177C33.1378 39.5859 31.9919 38.6945 30.0231 37.2973C27.7477 35.6826 29.2227 34.7951 30.5195 33.3447C30.8588 32.9651 36.7554 27.1891 36.8695 26.6651C36.8838 26.5996 36.8971 26.3553 36.7623 26.2264C36.6276 26.0974 36.4287 26.1415 36.2852 26.1766C36.0817 26.2263 32.8415 28.5327 26.5644 33.0959C25.6446 33.776 24.8116 34.1074 24.0652 34.09C23.2423 34.0709 21.6595 33.589 20.4828 33.1771C19.0396 32.6719 17.8925 32.4047 17.9924 31.5467C18.0444 31.0998 18.6159 30.6427 19.7068 30.1755Z" fill="black"/>
</g>
<defs>
<clipPath id="clip0_19_232">
<rect x="17.5" y="17" width="26" height="28" rx="6" fill="white"/>
</clipPath>
</defs>
</svg>
