<svg width="26" height="28" viewBox="0 0 26 28" fill="none" xmlns="http://www.w3.org/2000/svg">
<path fill-rule="evenodd" clip-rule="evenodd" d="M2.20684 13.1755C8.92512 10.0233 13.405 7.94517 15.6466 6.94113C22.0466 4.07437 23.3764 3.57639 24.2432 3.55994C24.4339 3.55633 24.8601 3.60721 25.1363 3.84849C25.3694 4.05222 25.4336 4.32744 25.4642 4.5206C25.4949 4.71376 25.5332 5.15379 25.5028 5.49762C25.156 9.42199 23.6553 18.9454 22.8918 23.3408C22.5688 25.2006 21.9327 25.8242 21.3169 25.8852C19.9786 26.0178 18.9623 24.9327 17.6661 24.0177C15.6378 22.5858 14.4919 21.6945 12.5231 20.2973C10.2477 18.6825 11.7227 17.795 13.0195 16.3446C13.3588 15.965 19.2554 10.1891 19.3695 9.6651C19.3838 9.59957 19.3971 9.3553 19.2623 9.22632C19.1276 9.09733 18.9287 9.14144 18.7852 9.17652C18.5817 9.22624 15.3415 11.5327 9.06436 16.0958C8.14462 16.776 7.31155 17.1074 6.56515 17.09C5.7423 17.0708 4.15947 16.589 2.9828 16.177C1.53956 15.6718 0.392509 15.4047 0.492391 14.5467C0.544416 14.0998 1.1159 13.6427 2.20684 13.1755Z" fill="black"/>
</svg>
