<svg width="28" height="28" viewBox="0 0 28 28" fill="none" xmlns="http://www.w3.org/2000/svg">
<path fill-rule="evenodd" clip-rule="evenodd" d="M2.37654 13.1755C9.61161 10.0233 14.4361 7.94522 16.8501 6.94117C23.7424 4.07442 25.1746 3.57643 26.108 3.55999C26.3134 3.55637 26.7724 3.60725 27.0698 3.84854C27.3208 4.05227 27.3899 4.32749 27.423 4.52065C27.456 4.71381 27.4972 5.15384 27.4645 5.49767C27.091 9.42203 25.4749 18.9454 24.6527 23.3408C24.3048 25.2006 23.6197 25.8242 22.9566 25.8853C21.5153 26.0179 20.4209 24.9328 19.025 24.0177C16.8406 22.5859 15.6066 21.6945 13.4863 20.2973C11.036 18.6826 12.6244 17.7951 14.0209 16.3447C14.3863 15.9651 20.7365 10.1891 20.8594 9.66515C20.8748 9.59962 20.8891 9.35535 20.744 9.22636C20.5988 9.09738 20.3847 9.14149 20.2301 9.17657C20.011 9.22629 16.5215 11.5327 9.76156 16.0959C8.77108 16.776 7.87392 17.1074 7.07011 17.09C6.18396 17.0709 4.47937 16.589 3.21219 16.1771C1.65794 15.6719 0.422645 15.4047 0.530211 14.5467C0.586238 14.0998 1.20168 13.6427 2.37654 13.1755Z" fill="black"/>
</svg>
