<svg width="60" height="62" viewBox="0 0 60 62" fill="none" xmlns="http://www.w3.org/2000/svg">
<ellipse cx="30" cy="31" rx="30" ry="31" fill="#E4E5EA"/>
<g clip-path="url(#clip0_19_234)">
<path d="M18 43L19.6963 36.8403C18.6476 35.0323 18.0974 32.9848 18.1032 30.8916C18.1032 24.3327 23.467 19 30.0516 19C33.2493 19 36.2521 20.2376 38.5043 22.4848C40.7622 24.7319 42.0057 27.7205 42 30.8973C42 37.4563 36.6361 42.789 30.0458 42.789H30.0401C28.0401 42.789 26.0745 42.2871 24.3266 41.3403L18 43ZM24.6304 39.1901L24.9914 39.4068C26.5158 40.308 28.2636 40.7814 30.0458 40.7871H30.0516C35.5243 40.7871 39.9828 36.3555 39.9828 30.903C39.9828 28.2624 38.9513 25.7814 37.0773 23.9106C35.2034 22.0399 32.7049 21.0133 30.0516 21.0133C24.5788 21.0076 20.1203 25.4392 20.1203 30.8916C20.1203 32.7567 20.6418 34.576 21.639 36.1502L21.8739 36.5266L20.8711 40.1711L24.6304 39.1901Z" fill="white"/>
<path d="M18.4183 42.5836L20.0573 36.6349C19.043 34.8954 18.51 32.9163 18.51 30.8973C18.5158 24.5665 23.6905 19.4163 30.0516 19.4163C33.1404 19.4163 36.0344 20.614 38.212 22.7813C40.3897 24.9486 41.5874 27.8345 41.5874 30.903C41.5874 37.2338 36.4069 42.3839 30.0516 42.3839H30.0458C28.1146 42.3839 26.2178 41.8992 24.5329 40.9866L18.4183 42.5836Z" fill="black"/>
<path d="M18 43L19.6963 36.8403C18.6476 35.0323 18.0974 32.9848 18.1032 30.8916C18.1032 24.3327 23.467 19 30.0516 19C33.2493 19 36.2521 20.2376 38.5043 22.4848C40.7622 24.7319 42.0057 27.7205 42 30.8973C42 37.4563 36.6361 42.789 30.0458 42.789H30.0401C28.0401 42.789 26.0745 42.2871 24.3266 41.3403L18 43ZM24.6304 39.1901L24.9914 39.4068C26.5158 40.308 28.2636 40.7814 30.0458 40.7871H30.0516C35.5243 40.7871 39.9828 36.3555 39.9828 30.903C39.9828 28.2624 38.9513 25.7814 37.0773 23.9106C35.2034 22.0399 32.7049 21.0133 30.0516 21.0133C24.5788 21.0076 20.1203 25.4392 20.1203 30.8916C20.1203 32.7567 20.6418 34.576 21.639 36.1502L21.8739 36.5266L20.8711 40.1711L24.6304 39.1901Z" fill="white"/>
<path fill-rule="evenodd" clip-rule="evenodd" d="M27.0658 25.9182C26.8423 25.422 26.6073 25.4106 26.3953 25.4049C26.2234 25.3992 26.0228 25.3992 25.8222 25.3992C25.6216 25.3992 25.3007 25.4733 25.0256 25.7699C24.7506 26.0665 23.9827 26.7851 23.9827 28.2509C23.9827 29.711 25.0543 31.1254 25.2033 31.325C25.3523 31.5246 27.2721 34.6216 30.3036 35.8136C32.8251 36.806 33.3408 36.6064 33.8852 36.5551C34.4297 36.5037 35.6503 35.8364 35.9024 35.1406C36.1488 34.4448 36.1488 33.8516 36.0743 33.7262C35.9998 33.6007 35.7993 33.5265 35.5013 33.3783C35.2033 33.23 33.7362 32.5113 33.4612 32.4087C33.1861 32.3117 32.9855 32.2604 32.7907 32.557C32.5901 32.8535 32.017 33.5208 31.8451 33.7205C31.6732 33.9201 31.4956 33.9429 31.1976 33.7946C30.8996 33.6463 29.9368 33.3326 28.7964 32.3174C27.9082 31.5303 27.3064 30.5551 27.1345 30.2585C26.9626 29.9619 27.1173 29.8022 27.2663 29.6539C27.3981 29.5227 27.5643 29.306 27.7133 29.1349C27.8623 28.9638 27.9139 28.8383 28.0113 28.6387C28.1087 28.4391 28.0629 28.268 27.9884 28.1197C27.9139 27.9771 27.3294 26.5056 27.0658 25.9182Z" fill="white"/>
</g>
<defs>
<clipPath id="clip0_19_234">
<rect x="18" y="19" width="24" height="24" rx="6" fill="white"/>
</clipPath>
</defs>
</svg>
