<svg width="24" height="24" viewBox="0 0 24 24" fill="none" xmlns="http://www.w3.org/2000/svg">
<g clip-path="url(#clip0_133_547)">
<path d="M0 24L1.69627 17.8403C0.647564 16.0323 0.0974211 13.9848 0.103152 11.8916C0.103152 5.3327 5.46704 0 12.0516 0C15.2493 0 18.2521 1.23764 20.5043 3.48479C22.7622 5.73194 24.0057 8.72053 24 11.8973C24 18.4563 18.6361 23.789 12.0458 23.789H12.0401C10.0401 23.789 8.07449 23.2871 6.32664 22.3403L0 24ZM6.63037 20.1901L6.9914 20.4068C8.51575 21.308 10.2636 21.7814 12.0458 21.7871H12.0516C17.5243 21.7871 21.9828 17.3555 21.9828 11.903C21.9828 9.26236 20.9513 6.78137 19.0773 4.91065C17.2034 3.03992 14.7049 2.01331 12.0516 2.01331C6.57879 2.0076 2.12034 6.43916 2.12034 11.8916C2.12034 13.7567 2.64183 15.576 3.63897 17.1502L3.87392 17.5266L2.87106 21.1711L6.63037 20.1901Z" fill="white"/>
<path d="M0.418335 23.5837L2.0573 17.635C1.04298 15.8954 0.510025 13.9164 0.510025 11.8973C0.515756 5.56654 5.69054 0.416351 12.0516 0.416351C15.1404 0.416351 18.0344 1.61407 20.212 3.78137C22.3897 5.94867 23.5874 8.8346 23.5874 11.903C23.5874 18.2338 18.4069 23.384 12.0516 23.384H12.0458C10.1146 23.384 8.21776 22.8992 6.53294 21.9867L0.418335 23.5837Z" fill="black"/>
<path d="M0 24L1.69627 17.8403C0.647564 16.0323 0.0974211 13.9848 0.103152 11.8916C0.103152 5.3327 5.46704 0 12.0516 0C15.2493 0 18.2521 1.23764 20.5043 3.48479C22.7622 5.73194 24.0057 8.72053 24 11.8973C24 18.4563 18.6361 23.789 12.0458 23.789H12.0401C10.0401 23.789 8.07449 23.2871 6.32664 22.3403L0 24ZM6.63037 20.1901L6.9914 20.4068C8.51575 21.308 10.2636 21.7814 12.0458 21.7871H12.0516C17.5243 21.7871 21.9828 17.3555 21.9828 11.903C21.9828 9.26236 20.9513 6.78137 19.0773 4.91065C17.2034 3.03992 14.7049 2.01331 12.0516 2.01331C6.57879 2.0076 2.12034 6.43916 2.12034 11.8916C2.12034 13.7567 2.64183 15.576 3.63897 17.1502L3.87392 17.5266L2.87106 21.1711L6.63037 20.1901Z" fill="white"/>
<path fill-rule="evenodd" clip-rule="evenodd" d="M9.06576 6.91826C8.84226 6.42206 8.60731 6.41065 8.39527 6.40495C8.22335 6.39925 8.02278 6.39925 7.82221 6.39925C7.62163 6.39925 7.30072 6.47339 7.02565 6.76997C6.75057 7.06655 5.98267 7.78518 5.98267 9.25096C5.98267 10.711 7.0543 12.1255 7.2033 12.3251C7.35229 12.5247 9.27206 15.6217 12.3036 16.8137C14.8251 17.8061 15.3408 17.6065 15.8852 17.5551C16.4297 17.5038 17.6503 16.8365 17.9024 16.1407C18.1488 15.4449 18.1488 14.8517 18.0743 14.7262C17.9998 14.6008 17.7993 14.5266 17.5013 14.3783C17.2033 14.23 15.7362 13.5114 15.4612 13.4088C15.1861 13.3118 14.9855 13.2605 14.7907 13.557C14.5901 13.8536 14.017 14.5209 13.8451 14.7205C13.6732 14.9202 13.4956 14.943 13.1976 14.7947C12.8996 14.6464 11.9368 14.3327 10.7964 13.3175C9.90816 12.5304 9.30645 11.5551 9.13453 11.2586C8.96261 10.962 9.11733 10.8023 9.26633 10.654C9.39814 10.5228 9.56433 10.3061 9.71332 10.135C9.86232 9.96389 9.91389 9.83841 10.0113 9.63879C10.1087 9.43917 10.0629 9.26807 9.98839 9.11978C9.9139 8.97719 9.32937 7.50571 9.06576 6.91826Z" fill="white"/>
</g>
<defs>
<clipPath id="clip0_133_547">
<rect width="24" height="24" rx="6" fill="white"/>
</clipPath>
</defs>
</svg>
