<svg width="53" height="53" viewBox="0 0 53 53" fill="none" xmlns="http://www.w3.org/2000/svg">
<g clip-path="url(#clip0_0_850)">
<path d="M0 53L3.74594 39.3973C1.43004 35.4047 0.215138 30.8831 0.227794 26.2607C0.227794 11.7764 12.0731 0 26.6139 0C33.6755 0 40.3068 2.73313 45.2803 7.69558C50.2664 12.658 53.0126 19.2578 53 26.2733C53 40.7576 41.1547 52.534 26.6012 52.534H26.5886C22.1719 52.534 17.8312 51.4256 13.9713 49.3348L0 53ZM14.6421 44.5865L15.4393 45.0651C18.8056 47.0551 22.6655 48.1005 26.6012 48.1131H26.6139C38.6996 48.1131 48.5453 38.3268 48.5453 26.2859C48.5453 20.4544 46.2674 14.9755 42.1291 10.8443C37.9909 6.71317 32.4732 4.44606 26.6139 4.44606C14.5282 4.43346 4.68242 14.2198 4.68242 26.2607C4.68242 30.3793 5.83405 34.3971 8.03605 37.8733L8.55491 38.7046L6.34025 46.7529L14.6421 44.5865Z" fill="white"/>
<path d="M0.923828 52.0806L4.54321 38.9439C2.30324 35.1024 1.12631 30.7319 1.12631 26.2733C1.13897 12.2928 12.5666 0.919434 26.6139 0.919434C33.435 0.919434 39.8259 3.5644 44.6349 8.35052C49.4439 13.1366 52.0888 19.5097 52.0888 26.2859C52.0888 40.2664 40.6485 51.6397 26.6139 51.6397H26.6012C22.3364 51.6397 18.1475 50.5692 14.4269 48.554L0.923828 52.0806Z" fill="url(#paint0_linear_0_850)"/>
<path d="M0 53L3.74594 39.3973C1.43004 35.4047 0.215138 30.8831 0.227794 26.2607C0.227794 11.7764 12.0731 0 26.6139 0C33.6755 0 40.3068 2.73313 45.2803 7.69558C50.2664 12.658 53.0126 19.2578 53 26.2733C53 40.7576 41.1547 52.534 26.6012 52.534H26.5886C22.1719 52.534 17.8312 51.4256 13.9713 49.3348L0 53ZM14.6421 44.5865L15.4393 45.0651C18.8056 47.0551 22.6655 48.1005 26.6012 48.1131H26.6139C38.6996 48.1131 48.5453 38.3268 48.5453 26.2859C48.5453 20.4544 46.2674 14.9755 42.1291 10.8443C37.9909 6.71317 32.4732 4.44606 26.6139 4.44606C14.5282 4.43346 4.68242 14.2198 4.68242 26.2607C4.68242 30.3793 5.83405 34.3971 8.03605 37.8733L8.55491 38.7046L6.34025 46.7529L14.6421 44.5865Z" fill="url(#paint1_linear_0_850)"/>
<path fill-rule="evenodd" clip-rule="evenodd" d="M20.0204 15.2777C19.5269 14.182 19.008 14.1568 18.5398 14.1442C18.1601 14.1316 17.7172 14.1316 17.2742 14.1316C16.8313 14.1316 16.1226 14.2953 15.5152 14.9503C14.9077 15.6052 13.2119 17.1922 13.2119 20.4291C13.2119 23.6535 15.5784 26.777 15.9075 27.2179C16.2365 27.6587 20.476 34.4978 27.1706 37.1302C32.7389 39.3217 33.8779 38.8809 35.0801 38.7675C36.2823 38.6542 38.9779 37.1805 39.5347 35.644C40.0789 34.1074 40.0789 32.7975 39.9144 32.5204C39.7499 32.2433 39.3069 32.0796 38.6489 31.7521C37.9908 31.4246 34.7511 29.8376 34.1436 29.6109C33.5362 29.3968 33.0932 29.2834 32.663 29.9384C32.22 30.5933 30.9545 32.067 30.5748 32.5078C30.1952 32.9486 29.8029 32.999 29.1448 32.6715C28.4867 32.344 26.3607 31.6513 23.8423 29.4094C21.8807 27.6713 20.5519 25.5175 20.1723 24.8626C19.7926 24.2076 20.1343 23.855 20.4633 23.5275C20.7544 23.2378 21.1214 22.7592 21.4504 22.3814C21.7795 22.0035 21.8934 21.7264 22.1085 21.2856C22.3237 20.8448 22.2224 20.4669 22.0579 20.1394C21.8934 19.8246 20.6025 16.575 20.0204 15.2777Z" fill="white"/>
</g>
<defs>
<linearGradient id="paint0_linear_0_850" x1="26.505" y1="52.078" x2="26.505" y2="0.917644" gradientUnits="userSpaceOnUse">
<stop stop-color="#20B038"/>
<stop offset="1" stop-color="#60D66A"/>
</linearGradient>
<linearGradient id="paint1_linear_0_850" x1="26.5052" y1="52.995" x2="26.5052" y2="0" gradientUnits="userSpaceOnUse">
<stop stop-color="#F9F9F9"/>
<stop offset="1" stop-color="white"/>
</linearGradient>
<clipPath id="clip0_0_850">
<rect width="53" height="53" rx="6" fill="white"/>
</clipPath>
</defs>
</svg>
