<svg width="61" height="62" viewBox="0 0 61 62" fill="none" xmlns="http://www.w3.org/2000/svg">
<ellipse cx="30.5" cy="31" rx="30" ry="31" fill="#F8D845"/>
<g clip-path="url(#clip0_19_298)">
<path d="M20.75 37.37V40.9167C20.75 41.2433 20.9883 41.5 21.2917 41.5H24.585C24.7258 41.5 24.8667 41.4417 24.9642 41.325L36.7942 28.5967L32.7317 24.2217L20.9125 36.95C20.8042 37.0667 20.75 37.2067 20.75 37.37ZM39.9358 25.2133C40.3583 24.7583 40.3583 24.0233 39.9358 23.5683L37.4008 20.8383C36.9783 20.3833 36.2958 20.3833 35.8733 20.8383L33.8908 22.9733L37.9533 27.3483L39.9358 25.2133Z" fill="white"/>
</g>
<defs>
<clipPath id="clip0_19_298">
<rect width="26" height="28" fill="white" transform="translate(17.5 17)"/>
</clipPath>
</defs>
</svg>
